:SAMPLES-PER-SECOND 30
:FULLY-SPECIFIED
:DEGREES
1678
root  -25.1467 39.2566 -5.65564 -14.8449 84.1445 -10.9163
RightUpLeg  -4.78952 -8.09152 3.23064
RightLeg  20.9106 0.502059 1.11656
RightFoot  -10.7407 -0.0372896 -6.65408
RightToes  9.54606e-009 0 -3.6325e-017
Spine  7.60108 -0.987489 10.7104
Spine1  5.38678 0.384054 0.332243
HEad  -16.207 -3.724 -2.72299
LeftShoulder1  -0.722204 5.39352 -32.0614
LeftArm  1.28616 6.47476 -42.8629
LeftForeArm  22.375 -15.7594 -6.40257
LeftHand  -0.076178 8.29195 -1.1559
RightShoulder  -0.88789 -6.04178 28.4012
RightArm  18.8534 0.119617 46.5683
RightForeArm  9.86891 21.9171 4.41287
RightHand  -0.178655 4.60167 -2.36411
LeftUpLeg  -14.0841 0.410103 4.29242
LeftLeg  53.1714 -0.987903 -0.957423
LeftFoot  1.41167 0.577956 -5.23901
LeftToes  -8.26734e-010 9.74065e-011 1.64617e-011
1679
root  -24.0972 39.3372 -5.56851 -11.2602 83.4568 -7.29639
RightUpLeg  -2.37275 -8.38499 2.48316
RightLeg  19.7122 1.54956 1.58153
RightFoot  -11.6662 -0.0975116 -6.55653
RightToes  9.54606e-009 0 -3.6325e-017
Spine  7.38173 -0.760279 10.5998
Spine1  5.2873 0.597285 -0.462518
HEad  -16.9713 -3.88889 -2.6062
LeftShoulder1  -0.725567 5.39572 -32.1952
LeftArm  -0.401452 7.22514 -41.887
LeftForeArm  24.3627 -14.3226 -6.81778
LeftHand  -0.10283 8.46845 -2.00923
RightShoulder  -0.920799 -6.14331 28.3138
RightArm  17.4819 0.570513 46.819
RightForeArm  10.9573 25.3836 4.8358
RightHand  -0.208332 4.40214 -2.75128
LeftUpLeg  -15.4075 0.755315 4.21301
LeftLeg  46.6561 -1.22118 -1.00508
LeftFoot  0.241358 0.479151 -4.74859
LeftToes  -8.26734e-010 9.74065e-011 1.64617e-011
1680
root  -23.0793 39.4582 -5.49601 -7.44743 82.3683 -3.67438
RightUpLeg  0.00272235 -8.42015 1.70905
RightLeg  17.8836 2.75975 1.91424
RightFoot  -11.9323 -0.114019 -6.48639
RightToes  9.54606e-009 0 -3.6325e-017
Spine  7.25214 -0.450366 10.2546
Spine1  5.0585 0.854184 -1.518
HEad  -17.4648 -3.73683 -2.78375
LeftShoulder1  -0.730153 5.41574 -32.0151
LeftArm  -2.1516 8.21571 -41.3264
LeftForeArm  26.6391 -12.9532 -7.08769
LeftHand  -0.135582 8.48605 -3.16716
RightShoulder  -0.95726 -6.23841 28.446
RightArm  15.9798 0.59914 46.562
RightForeArm  12.9213 29.4832 5.70033
RightHand  -0.184093 3.88752 -2.57127
LeftUpLeg  -15.9499 2.59423 4.09608
LeftLeg  38.0052 -1.93359 -1.22201
LeftFoot  0.297533 0.55777 -5.48897
LeftToes  -8.26734e-010 9.74065e-011 1.64617e-011
1681
root  -22.0961 39.5542 -5.41793 -4.12038 81.3824 -0.485352
RightUpLeg  2.153 -8.40121 0.888221
RightLeg  16.4813 4.17187 2.06271
RightFoot  -12.3592 -0.134292 -5.74026
RightToes  9.54606e-009 0 -3.6325e-017
Spine  7.71341 -0.381382 9.23149
Spine1  4.27789 0.849409 -2.32749
HEad  -18.3253 -3.4704 -2.7565
LeftShoulder1  -0.652999 5.25118 -31.2377
LeftArm  -1.96671 10.6245 -41.0283
LeftForeArm  27.4203 -13.9102 -6.39156
LeftHand  -0.186497 8.63448 -4.64778
RightShoulder  -0.94642 -6.1923 28.6188
RightArm  14.47 -0.549447 46.0689
RightForeArm  14.7791 34.8797 6.95705
RightHand  -0.177126 4.30546 -2.39614
LeftUpLeg  -15.6015 6.25254 3.67215
LeftLeg  28.099 -4.98229 -2.49013
LeftFoot  1.20039 0.554872 -5.12047
LeftToes  -8.26734e-010 9.74065e-011 1.64617e-011
1682
root  -21.1556 39.5192 -5.3362 -2.78223 80.3777 0.912781
RightUpLeg  3.56792 -9.31685 -0.0385048
RightLeg  17.027 6.28853 2.52426
RightFoot  -13.411 -0.17568 -4.78895
RightToes  9.54606e-009 0 -3.6325e-017
Spine  8.69316 -0.575788 7.22019
Spine1  3.65967 0.359962 -1.95141
HEad  -20.0435 -3.08221 -2.50208
LeftShoulder1  -0.6011 5.11718 -31.0163
LeftArm  -0.349151 15.8149 -40.0911
LeftForeArm  27.4732 -21.9493 -4.45847
LeftHand  -0.221503 8.76189 -5.67698
RightShoulder  -0.870369 -6.05576 27.5243
RightArm  11.9034 -2.93442 47.013
RightForeArm  18.6244 42.1727 8.93855
RightHand  -0.110128 3.03425 -1.7335
LeftUpLeg  -15.107 12.4127 2.90754
LeftLeg  19.2194 -9.69975 -3.44739
LeftFoot  1.86136 0.58267 -5.13485
LeftToes  -8.26734e-010 9.74065e-011 1.64617e-011
